<mxfile host="app.diagrams.net" agent="Mozilla/5.0 (Macintosh; Intel Mac OS X 10_15_7) AppleWebKit/605.1.15 (KHTML, like Gecko) Version/18.5 Safari/605.1.15" version="28.2.1">
  <diagram name="Main Diagram" id="eHYBRai8wYV9aSZL_Cyr">
    <mxGraphModel dx="1176" dy="784" grid="1" gridSize="10" guides="1" tooltips="1" connect="1" arrows="1" fold="1" page="1" pageScale="1" pageWidth="850" pageHeight="1100" math="0" shadow="0">
      <root>
        <mxCell id="0" />
        <mxCell id="1" parent="0" />
        <mxCell id="ochyO7lB4CF9RYS_0nTv-1" value="Tools Account" style="points=[[0,0],[0.25,0],[0.5,0],[0.75,0],[1,0],[1,0.25],[1,0.5],[1,0.75],[1,1],[0.75,1],[0.5,1],[0.25,1],[0,1],[0,0.75],[0,0.5],[0,0.25]];outlineConnect=0;gradientColor=none;html=1;whiteSpace=wrap;fontSize=12;fontStyle=0;container=1;pointerEvents=0;collapsible=0;recursiveResize=0;shape=mxgraph.aws4.group;grIcon=mxgraph.aws4.group_account;strokeColor=#CD2264;fillColor=none;verticalAlign=top;align=left;spacingLeft=30;fontColor=#CD2264;dashed=0;" vertex="1" parent="1">
          <mxGeometry x="90" y="140" width="710" height="420" as="geometry" />
        </mxCell>
        <mxCell id="ochyO7lB4CF9RYS_0nTv-3" value="&lt;span style=&quot;color: light-dark(rgb(177, 140, 254), rgb(237, 237, 237));&quot;&gt;&lt;b&gt;Tools VPC (10.0.0.0/8) = 2**(32-20)&lt;/b&gt;&lt;/span&gt;" style="points=[[0,0],[0.25,0],[0.5,0],[0.75,0],[1,0],[1,0.25],[1,0.5],[1,0.75],[1,1],[0.75,1],[0.5,1],[0.25,1],[0,1],[0,0.75],[0,0.5],[0,0.25]];outlineConnect=0;gradientColor=none;html=1;whiteSpace=wrap;fontSize=12;fontStyle=0;container=1;pointerEvents=0;collapsible=0;recursiveResize=0;shape=mxgraph.aws4.group;grIcon=mxgraph.aws4.group_vpc2;strokeColor=#8C4FFF;fillColor=none;verticalAlign=top;align=left;spacingLeft=30;fontColor=#AAB7B8;dashed=0;" vertex="1" parent="ochyO7lB4CF9RYS_0nTv-1">
          <mxGeometry x="20" y="30" width="660" height="370" as="geometry" />
        </mxCell>
        <mxCell id="ochyO7lB4CF9RYS_0nTv-2" value="Jenkins Master" style="shape=image;verticalLabelPosition=bottom;labelBackgroundColor=default;verticalAlign=top;aspect=fixed;imageAspect=0;image=data:image/png,iVBORw0KGgoAAAANSUhEUgAAALkAAAEACAYAAADvH9dVAAAAAXNSR0IArs4c6QAAAERlWElmTU0AKgAAAAgAAYdpAAQAAAABAAAAGgAAAAAAA6ABAAMAAAABAAEAAKACAAQAAAABAAAAuaADAAQAAAABAAABAAAAAABqcEgaAABAAElEQVR4Ae2dCZwdRbX/ayaBrGRPyGAIECCEfUkgLIanhJ0gRJTFFdCnIIKAouJ7PEFQVFSQRVFRFH0P5C9GJCACAQV5ECVCWEPCSyCJBLIQQkIWQib/+vb06VRXV/XtvrfvNpn6fGa6u7q2rvvr078651RVy6SzL1Bdofo98MI9UwbrWrbVfyP033ipsVu3buM4b29vH75x40buqZaWloUcW1tbX+MoYcOGDU+E59P18bFdj528TO51Hf090NIFcn/nlHtHA3ofnTcAMyDW4ATIQ8otLyXfUu7pOp4IX4A7NPCfSkm/Wd7qAnkBP3sopQ/SRSGhz9J/1QB01pYu7QJ9vKu6QB7vj8xXAmwNqHOqKKkztyclIdL+Rv13zeZKb7pAnoIO1y0N7klNAGxX06E19+oX8gYN9qnOBJ00sgvkGX7YkGOfpJNWhYps0aOn6tmzh7MlK1escMZXGLlZSfcukKegxZDaR6cky3Vr5LbbqAP23EnttesoNXTIQLXLTiPVsG1GesvYsO5ttWzZMrV46Ztq9kuvqIXL1qinn52lZjzzolq/bq03X8YbgP2Mzi7Zu0DuQEPR4N6qf3912uSj1anHHZgKaEdTvFGA/4UX/089OH1WxaAPaczHOitn7wK5ASPArXXUl2t9NSrAisPuO+2gPv+pE9XB4/dV3Xr0qbi8tAIA/f9Of1I9+eKr6tG//V0999K8tOSuewGF0UC/xHWzmeO6QK5/vaLBDSW5+HOnqAmHvrdu2Fj31mJ19wPT1U2336fmL3g1czs6o1TfrEGuwT1Y/6i/0RqHkpz7wHF7q979h6gHp03zAgZactGnJ6sTjjus6pLb2wjHjUce/pv61R0PqsefmOm4m4zqbEDfLEEOuPVPe77++8/kT7wpBol89MQJasIRk9SwoUODG9/5zlUJoKMdOeO0E9RnT3mf6tFv2KYCGuxs8avz1Y9unqJ+d8/DWVoGfTlC05emt6BudiDXAL9c/3heVSDS+NAJh6qJE9+/cffdd2sx0fDAA9Par/nhda2mVgMJ/62vnF7YgNKsD56dFt513O/u4f7mmACw33b34+rWKfeqEirKTqF92WxADu/WgLlZ/zlN7oB1wmFHth9++MRWG1iA+8af/LTVBIRQkw9+8Hg7ee5rG8wu8OYu1JPBfAmo58rrbi0l2Zse6J0e5KWoCZTklNM+6gT3mjVr1LcvvzTBZSuV3iaoqwloD85j0YAercyXv/2LNKne1EDv1CBPk95I4rM++xknuBcvWaIeuX+qunfaIzHNBNz7ks+fqsqR3gLseoM6hnDjYsWqtepr3/ll4oU2kjQt0DslyJHePq2JDBKPnXyq6tWrl/EbKgW4n575dPuMGf9s/ccTT8QkW7nSG3A3KrBjDx9elKAvTQn0TgdyDXDvwPKwiRPVGWfqQWKoKZEfWcD9/POzWtesWa1sgH/m9FPUef9+siTPdGw2cJsP1dmA3qlAHgI8oRZEep//hXMT1ATO/eij/9sOuPmRl702P/G5/sYXT89FT5oZ3DmB3jTqxe7mgzXrudAT3f6EUYeB5Te//R2kd0xrIrz7X0tXR/E4PUngxbj20rMzWy07C7jl+S8+97Tg1KNTR0N1v+73Mc3g79Jt9P5MaGneAMB162dpf5O97KeAR39TG28G6EGmGVAJPvTQX1tWrl4fRT8zc4Za/sby4JpB6c3f+5La/4D9o/tpJ5jQ2zdsKistbTPdmzB+T/XG8pXq+TmvuJrdW/v5HLlkzgu/G7rzrmtcCRolrqklOQDXHf2ABnhC933cpOPVeeedE+tnl/QmATRF/DsA+J03XZrJuNPZpHess8KLz50xWb0we4HT4QtHNgb4OukxrryNEhd9qhulQXnaQQe7PAYv+vJF7S6A33br7UrTk0QVz815OYiD2nQBPN49/fv2VNddeZ7i5XcF/H60sGGw37ChaUFOx9qOVfDoH1z9g4221RIJDsBd4eVZzwaqQn7EKT+9pEuCOzoJoH/3q2c67kRR/6l/j0nRVYOdNCXIoSm6H/E/iQU0KLa/yXPPPb/RB3Boivhd/+zb52dyrtocKIrZqVhE+cNtGFVqSrg5/F1SktTnVlOCPOSBMR7OD+CS4NOmPRRzsjK7WWgKasI99kqMW82kwfnmBHCAjUcljl3i3IWtgMG8J/B74NnZcKHpQM5n0aYpGHlO+sgZsc5FB45p3hcefuThgKbwo2Ux029uABdg2/13w+VnKcYungBt2cdzr27RTQdyLcVjKhO49HnnfT7RgRh5XlqwNNCcYMWUPyiKABwOj5tsqdAF8E09hHT/5Q8uUvSdK2htF56eDRWaSoUYcr6YwQcnK+2DErysYp5/5MH7WjUVibnGunqdiQ5pM+XJUwnA+eQTTKlIeYRG9GehvWZbg4bqf88+/XQwYZrrEYN7BasM0Hc//eVvJUl0RNvF11Ybifyf0Sh1bU6aCuS6S2Kcj89mW1tby7XX3qAw5oS67kxfJ74AzORJC+UC3AcW6jJB1IhAl/7g2S//3k3qz4/OjDmqyf20Y/i17QJ5Wif57ulP4SQtKaLbgPrCCy70DiyjhJ6TUlPV8oLQJbmlambj/O3xmcG6KcTtu8s2wSz+vHVIedU4ygsIwD/75e8n/Hiy1hnqzgc3ism/KSQ5NMVn+CnV8Ujs3XfeXg0ePjLg5TIRmVk+fIZ9WhWhFaXKl/s+6c0k4it/9Fv5ykjy4Ejb0D8fsM/oWHw9LuQFpW4keNZJzylt5avbEMtbNDzINcAD11ktHYakdGh0C+DsP26cmjTpuI2jRu3QYvqMw9kF5GRgYR4XyPPSFBfAkdwlJiEENODsi69WqDCPOzxasjx6lnqc4IfjccrK2xzsGF0gL9VrIcATrrOufKgCmaN5yCEHt4bATtAY/Mjh8eKnwiI8tp94EQC/9me3OwdlrnYTx9oo7z1wb4VlsV4B2gRd+ftTs4MmICyOOmTvaDk7IpcsXa7u+euTCvuCOd/V0+YhjTIAbVhJnhXgrFL1qXPOlZn1iUEn+vKVq1apJYuXbFy0aNHGrXr0iNLMX/JG4vfJy5GFx0pBl37zh7kl4fK30mflS9nVPgpF+9Cxhyocs1wvHV8cpsox2//mW+9MXY+xUQagDTlpAgmgf9C70n5UJI1vjibAnjt3XgBqmRAhZeGrIqZ84mY+eEuk8ahUipcCOC/kVgP6qRHDOpydFi5eoV59fYnaZuuhCiNLs4UM80J5pCH1HoA2nCTXAMcvJdWgAFi+etk3nBMhmKMZAhu6kqAsgMwMrBg7bJsOfXYlUtwHcOjRp08+su50xHzmos6R9LycUJyU2f5MWKirOrHhQK47hFG5d5AJ9/7qJZfGJiGLESgEd0RH8vyY8qnOmsfURqBBsQdrWAQxmLCSreuzn7WeZkiHdggtEYNoR2BE3QVyq2O83218VL7ylYtiyfEynNbhhFUWuAcP5sNRvgWSlwMVoRkAOFPnGkE1aLarmuc8K05ythVU8/Jx1aw3S9llASNLweWkCbm4U4rbAId33/E/N6sQ4OVUF0wEYOCYV4qbld1wy92RtkbiWZtlcwK4PDcWZNtLUQxDkqYex4YCeTgaT/QDg0zTCQuA3zPlNucsn0RmK2Llm29FMQP7lcfFKUBeDjQMZmgknbfZrlqd4/DmcN6q60TihgK5fuudn7bLLv36RjHqVAJwfuiV69ZFvzdajUqkODs9mIt/8rluFKNO9JA1PmH8MXbPXexa62rpahiQh1qVBFVBO2HO9ilXgkuvmzppVHl5NSpSDi8HFlMJtJNBZldQ6th/2zfWDfXm5Q0Dct0rzk8ai3FKjzHIdE1Elvt5j4OGteXNEkvPBlUSUBN2di2KPGupI9ZbKKYE3xda7lf72Eggd37S9tp7r6CN0JRKBpnSkWvXbqIreAKWG/gCiFEHvf3mTlPMfuRlxynOCJj4O9RYRmStThsG5K5PGgMYWbdw7tx5m3xsK+gdk0OzvWAlAdM3NIXNr7pCvAf22mNMPEKpbe2IWl03DMhdn7TR226iE7NmTk9YL/N2ElPgJPA5rZRekP+uX327KupCTOaNHGjfnJdf8zaRGURWGGFd1+yyIUDuG3Ruvd2ooCOwaBbBxVevYOXhjmB9TiU697HcgWupiphg0ejhmp//wdvE0TttZ99z0lE7UTWuGwLkvgcbO3a/YNCJP4ovTbnxjs9puUVVJR8urWmSsiqV5iyUiRXimmtnHTZkgB1Vt+uGBrn0iu1JKPF5j6YhqJJBZ956s6bHH0b+aOvv7nooa9aapqONMgGcrRNdASpnalhcYy5XvmrENQrInepDHhitSlHBNARVOugsqk2UA2jMhXywpuIteee0vwe+20XUhcT9yW//UlFRZjspiEE30tz3xRGLMmldYy7iaxHqDvLQX8XrWsuEh6KCGILQ2lQ66CyqTQDHnnhB2RhU0AQxOaGIwHbkOE+xS3M5wdXOA/bcKSjK98XRE1TKqarwPHUFuQHwhKVTnpQZPXJe6VGmbLUNG1RpUYXkdwFHCsagQmCvzSI1LXD9coLrRdxr11FBUbgZu9po+e57f+Ny2pMnT91AHgKc2T81eXhTfYjPSr1DGsBpG5wXIxMvZhHSXFR6zM90ATKtP2irK2AAE2csdnouFUItWqlkhd+vC8j1wzIDH4DXJYilsi6V56j0lBP+LUhdhDQfOmRgUFZRLw2FMY4QZyykuc3NHf1cF4NQzUEeAjzTDPzgV6nCv0p9VqrQJGeRLETK4A5gsrxFJYGBtkjdIl4aacsnTzpMTlWa3jxMxD5D+0QZanRSU5A3AsDp10ZQH2Y1Il38uVMCKKDFqEQ7wkBbpG6l0hwPTP5Yo4XJIaIqtPXmDmECNa050GsG8lIAH9SabMqKxfOTkcFP3jn+CVjSnubg8fsG3Jw0lWhHyG8awJjskZWb80ICaAE21+ZLetrkoyk+CNenWEHDJDUHek1ApAHOEhNeinJe/75quy23CPtg0wFT/tBhQyOfFZZd5o/FPeWPJSaIyxNYJKcRgoBFACSglyPxpDEdwP7r+78sWw2Iv7tIXdSTWQaLZj+ZwCaelwSVpOlyzHIfoqaUwa5ZRnguQK+JZ2LVZ+uHAPcOMgH4J/r3Uwv19oK2cks0IvZaKY5O03zzRYVqcKfRu+qZ/L0TScy4hcuKMzAlKiozwgaQWQyUgLmT0AECQC9nxS0oC1JXJhszWJw4YWyqgxlAxo/m6RfmKtaJwRLLokxQHl9ATZnB9XgIO/dpfBxe7XVZqirJ9QMwyPAaeq4c3C8AuK+z2P774x/9eGwxIF9aJBPLv7HWIS+FK4gUe2PxItftmsdlpQs0zJ5tU65aEWkuA1DKZb2UtHa8+NL84KXiheAlQ1KnAZyyz8/oerwx3CJR46SqEr1qkjxs+P26H/k0JQIAP6JP3yh+RLdu0bmcpHWmpHEd+SGQNiz8aUpwzMyUyb6UjRDQmKC3xiMSdRsDNQbFA40FkJZryYl/iEhxaXe5LyrS/ISJB0TrxNAftMO3glce9weECOuv7Lz9cGlmyaM29x+t/Vp+oxMeUzJxmQmqAvIQ4MwNcwIcimICnLY/sq7YHY358fgSHDrh0KhrMAIh7XkJkF71NO1TvwBXjlFDM5w4NBcZcnUkYbIHklkC9cOjXRSDPmJtRDO95JMj4IYGlVpICeXCG+1Jh1KArjFzuaYtVVkFt3CQA3DfLsl0ygf79kpQlPvfXqWeNKalSefZR3gpGgJT2jGZ+N5pjyTWPiEvQGeAuufeY4Oievff9M7xGW7WtVEA1WHjx9jdk/naBdzLr7/Ny/MvPve04Ctj9jO0hC9CKU5vNupjW/VWv1m52gl0nY5NtVQ1gF44yHVjz4drmQ8n5/v27KG+NqjD8iZxKze8q65avkounUcMIt/92r871xJnfXGWX2ZB/S9/62cJsCO5keAswg914ceBv+OwVE+Qu4DmfHgrkvbnpQRWEcEl0vzvz7wU9Rd9cvqFVwWbXrm+cCwcxJ/wd1caux57gN/WvVVdPaS/umDpijSg36GB/pRdViXXhQ489ZvoVRUC8B8M7p9o65RV3jc7ACRrmTDFzLVYvlkY99mVTAaX5j14rwRxzjLVXnKv1kckJIsR8RJnCXzJfn3NVwp5OQGpGJqkbgRCKcsq+bIAXMq0j/27taqLBm4ai9n39TXGokIHooVJ8rBhTk0KXAyAb9UtWZ2PiyOx/vybKyPnfEdnJKJwamJn5Y+f/53Yoj/QFtSRSHLh5TOeebHuvJwHgAfzh98Hg0y+MAwqUdfJYFR2XCv6y0N59vqF8PMrr7tV8QJWK+yqbSKMy65d4fyCDyl6IJpEXZlPRsP0AGIT6Q3LAeC/2HqgE+AL16/zcnHWE5TZJ2aTZIMp5hDuusuOCV9sJLqpPZC8zO/s1WtkoOcljs9zI/HyDo3E8EKktDxzliODRXbcYDAugUEmbrSugaikqfR4WO8eauGGDer3q5I2i3AgWtg2iYXQFS3FL6dhrgfn0zRiC7fz/IOrN62BYubls2zvkgznPujYM9VhH74g0NueevZlau/DPqFYFxzgmwG+6Qvm7KBGsXz62lqLeKjHJV/8REx3Tr0YnHzzN8tt1zaWmvgTeiAKjfWEmzWunGM7T3pvdMUg1w3x8nA0Kbaq0GwJb7Id4NS2zhaA//tXr3EaIZA6J3z6UsUa4WIO5wvAi2IGeDk7McM7JdgDI4nf3I58Rfhy2gFDke0+a6fJcw0ft8P5/Xorl9+STodFFKBXzM+TtdqtSLkOG+Dl4ef23yolt1Lz3k3qTNmMyd5f8/Lv3+IEuBQO5z7v0h8rFuDEPI7Ph+kCSjrS8GeGcg0qZhmd5RxqAj83A/2Fxko0Kua9LOdm/3qArAA+qkVXCLV057vu5YmrCOS6IhqQ4OE0AFWRa6DJPQKqw1feSRqA0LuaASqC9RItxG0//rpXEwHHNn+QLJY6BnddYVMPuNYXF41LuUDfVLr/DH7OV98T0J/DFsoOZYNcVwxfcnoWMnLevae30QHAV7QnqQpPYWsQGBzeedOlwSCItTwWLd60YxvUxlQZ8oOITwdcM001B51hLe2uEO8B+oRpd2ZA45LXY9HMz7nLy9RMc0Lvnj7aojRtYSZZ2aFskMOXXLUykMCr0BeQ4AJw+8HpXJuq4E8telkAj8QmAFLAzx9mZwlY5SQwm5yXALCTnj/S/vjKCwLeL+VK+q6jCvr6uivPiwkP+oWxT95JG3m+lNAWvv4uWgNt0UK1bKCXpUIMPx9I8liggV9PUfSbAI9lDC92HZ0+BXDaIzOibHi6CUjR6dKhSBykOYMlBlPEV1PfGzWmk53Qr66NrnDRhWdn7VPTCLeDtnaWCgD9fZq6uNSKOu9ZGnfXlOOWW7pmq2W6Ika7TinOAMKnLqQYkeBWkdFl1jcfyWx7upnunebi+FHhXSe5egDayDjIDkh0jEWlAhzeHuiXysN91Iouaa5vMfY7nzR5Q26Q6wqoKDHYpGGT+7pHyTQKKW6HLG+3azKBLGpjlgfooSNdobgeQONiUkEpOQt1gVqaweVKbd43z1PM/gxCEwzCzOs6zwXysALnYJOG+bQppWiKNIzdidOCSHqfm6lI85RpV2nFd5p7rJMif5U+FNTEJTxM9aCrDtvQhnNW1oDZ32ck8o0F08rOXrMuRZvur3QVRoN8Rp+sAKdc+DQ6bgkYd8zgWMfDvB1QGFvXG0uwGVzIokWseMWfb2GgPF1hz0rKktc2tNnWzlJl+IxE4SA0l0oxM8i1FJ/kM92nDTbTePj+PZKTl9NMybIsWVoHoeuVJdbS0m0u91zLu+V9dsda44FvS1o5ppcnVNZl7UzLL4NQTxrnmNCTVmUGuZbi57gKQSfuG2y6eLhZhuvtNjUoZlrOXZ1tp+FatC6ue509zgXqSqU53pF2KCVITOppq4rtsnzXKbpz9iDKLM0zgRwu7pLiaYPNLDSFt9XmXixXbFIWswMwBpnGH/Ne13nHEtB2P0D5XIN3O13atS144OhpggTNCtRTQhYFg6Q1j+DDZ/LPYyDKBHIfF6cBvsFmGk0xH2SCRVkw9viMDnTsRZ/2exia5W6O5/juSADcsm6LxJVzBLB/fnRmLKu5SFHsRnixeOmbseg8mpVYRn2Byd+lUszDzUuCXEvxweVIcbuxvmvXqJu1+uxBp+RHrVXJ/EYpp7MdmYgs64QXIb3pH8ZHzBSy9d2lltmb/dIrse51/caxBCUufNLcR6Ht4kqCXGdwKuCxTLmkeBaaYjYCdZH9ptKpd979oJksdm4bgmI3N9MLFvRB4lYKcCQ3L8zkz1yuzr746mhFAboVqoiByPYvsru8Us2KXZ5PmiN8odJ2evs61ayPFNcZzrIzcV3KjdaVxxfnMuXedPt96oTjDvNl6Yq3egATOsIBylKOEADcOLfxFbUlN1VhFGIyShoXlyZVqlmRcswj0tw1XS6k0qlrtpSS5EjxhHUTt8gipLg8BKNoOzBwQZpXqhmwy+2s17LTtFCWrM8JuDHTH/Wxi4Pl42yA40KBQxtGoSwAp17TZ6VczYrd/rF67GZ/8UmTRZqnSnJdhlOK41/gClkHm3ZeRtG8OLZjDlOwUBuWI5nsOjr7dU9tkGPQjnbqQ8e/P7XPcGDDv8ee22n2EeD+9MlHetdiMdOa5/B480WxFQtm2jznoje3MRKWcZI+PuUrzwtyTVXQQzqluEsvXkon7muAxCPN/6LnfNorLDHtDXfarFJEypMjkqrcvFJGMxxZag4vTIDO/Ffohen+IGZ4c60V13MJuLNOYgbUTFCRPma1ATMggYsKPozo8hHGl/jq8YKckav+FCTyuagFicqV4lKB701FKpzw6UuDpSaySnSAjZO/qL7+NuW6inXF0s5GPWJ6B+QScKLKE/DlZ4noUoNKKZOvgewsYc7J5esgAXrB71pU8GFElx8Yh7Qb7lRXXU6QhwPOcXYGGu2a8VOpFJd6fG8qQGctFSbblpIwSBYm4JqfTIwhcPtKjSLSzkY8YoEEqObSEmntRFPCfFpcJfIsAy0CRF4ipiRK4J5Zf1F8XMrniCuIh7KM17ezg1wnZvPYBFXx6SsrleK6riDwpuLNePGypBmZzzAc/bd3/tUpcezOlzL5/Mpso84McugCM3rOvfja4NGt7QWDOFmsCDtD1q+i9KOrf6FEZjmsY26Govi4WaaonG1aq9N4J1U4JbmPqrj4VVFSXB6kxOpKgaRAf4skYilmVsRiYXhTgkhZHFlDUUKzSHMBFJO6Tb4rz+E7AvRbrvuy73ZZ8dASNDYMaBE0Euh/e30be4/QSo1AUpd9dKmcdRqEMsI5Ic0TIA+pytF2wfiYuKiKna6I67TVlaR86Ah/po+E3JMjhotSayhK2kY6AlZohLzM0Iq8gK/keXjJkMp8NV3CQxYdlcEmdZHHHBNAbRFY1Qg+yhJaQEuDXDcK3XgiuD49ea2biUJTIlBT4vPgMgCkZItu4Vdur8IV3azzCV8U01tQXBhMOsXYA8kIcOC//AEuFizl64X/CJNDULHiuEYwQZfnEZHWmOLZMoUNClzANstjbGQPUGWVBElXDT4uZfsoS6gzH2zPA01Icu3dNUk7v0h50TFtaluUqOATJDqfPJZ2dnAwb20MwFjOuRGDDXBpowlwiWN5CHxHREJCF/hy8SdxktY88jKgN5cArSOw171wdWZRwacBOCrHrAHh4Rr8m6skUJZLKGatI0s6D2UhK0I6pk6MgTykKvvYlUBVbAtnNaW4WT9vLQuGsm5iygLuZhYlOxnHIhv0Is3XBMkM0FGHijYjy2PwMpj82dQ0Sf7lwSazw4OVdCWu1JGBJpNS7IBGy6aNrvGbna+SazRxLi2Lpizj7HJtJSbEPRGq/VYmKnREINVZl4NJGrx0LhOvZLMdhCTepAgS12hHuK0ZADomdUzraIqKCvYczLRyxTHLtxSF7W/O71OkftzVNsqnHjtoylIS5OgaEwGA2aEotaFdbto1D0ZbmG6HdGdzLRfYxbqXVlYj3DOlOJ5/7zv1q4EPiQ102goHZpMBBtPQsUqDTxDY5SK9ZQUz+x7XtNX+ytRKKHomY2AYirGRmCSHj9sPAohsM37RakO7zqzXUBnXACdtdzc4cT2Di3vTnqFDBgbaImiGb7cHpDp8GDUhRhgACODh4EUHys3imGUvHwdeqk1V5Fldc4TDe/iyRCHi5D4+DsFv5MDbbG9yywKhRQckVrnaiyxtQVIzqGOVKgaV8Fxbg2GWw6BR6ANtYzaOqSGZvWBRjJebeTmXrx16eGgQGhsxFpXaxU3Kol7052YAL9WmKlKfa44w92xeHoFc33PycdfUpXpQFXkw++hqHwMtVsN17VRh5896jcQSUGXN40sHTXGND2RQB9BxTWCptjSgS/m8fP37Dg+0JaL5AIBmkClpMilZ9gol75SfxpQRZrbUc/rEHOCSOEW6ppZVzk3h5fbOgTYvN+lKJj7eKFRFOsVnVbP1tpLeBS65l3ZkYSPf3NO0fK57UBaTj5tpZPlkXlTWXEeilxM6gN+xiRXnSH7+eGn447yS4JLiUJVqGYB8bc3CyyOQZ+XjvsrqFS+GAbt+W29r3i+Hl2N8QcKWCzqzfs593Jx7qA3RaCAlsXryctmSmXT1DC4p7vNtqmY7U74cES8PQA4fZ/az3RgXH28kqiLtdbUTva29l5CkL+cok3dL7UVfTtl2HiQvVEUCLxfuxo0Cdl50W6OCOs+lhZNnqNYxCy/vNnr/g9TSObMm6kZ8xG7IEb16qr0NXSRUZZ3DGmrnq/X1li1KTVuzLlFtjz4D1PixuyfiN25Yr9r1X57wnuGD1dMvLlRz572iXpz3mjrusIQ6Nk9xJdNS3xvLV6rn53TMfH9n3To146nn1P/88a/qyedeVguXrFLt776j+vbto3puaQ6tShZdcYKLv/lzteSNN2PlfKF/HzXU2vgqlqBKFz1bW9SLelue196Nz33QQnvA0J13vYpqpXecfLxWqqBKn18oi236h7K4zPvw8jS64GsP+xCh+eAPqSoDRV/6SuPx8pN116UsKIy0gTgx4Y8cOigy2YuWhPu+xU9tPXlWjQrPbfu2IMVrzcV5NgkuDZu+h7488GMRkEv62HHkFnEvskakKtJgKItt5hXK4tKywMvzAp0BG/pjfmQoRDl+2dLeLEdoC/wcH3EbWJIf0PP3nB6olhvQt1NXqcC44OZb70wkY3HOegaXhi1sz7b6uCzg5LZekQSMlE1/lUbTqoQPER3wZaDNdvBpWex0Wa+ZIiaB+afVHhACPiZDuJZPlnZUckRHbvuF+8rDSMULZQYmoNdKL27Wa577NGw6zQjSBaiw9YrccFkSiW/UQEe7Rvc+LUu5qkSkuSwPjZoPKVsLoDOPknqLtG7y4uAqkEWK43YATbKDb86vna6a177Bp64zoOFCV4bYjfDoH+1kDXXN6P6RdetjW5kXTVl4YLg4FkM0DNAIJJw5mbdanUK9cGd2ccApionaLg9DX/2oJcud13nVTVMSxdbCEStRqSOi1JekZcfttmeVrKV2Xrz9zF3cFq5Pai/sPI1wvWJDu/rk4uWxpsA5L/2PL8TiuPAZZBIJHRFIb5MrU0dRFlFHdd4o/MGxYopXoTmgZNCJT4zsaZpFYrsqOueSG51SHKriW4PHVU414858fXlizoGm4feOPuoDxyDJneZ8k+c0Oh83O89l6sW/4uJzF0cTmiW9UJa8A1DyC1dGf400Raqzzkm1NS7Sdjl2WC4rs15KWa6jj6aQ1rWjtquMWsRBr99YGxfEQsPh5E71YQrPqUWbK6rj5D5xpzIGS6i+ig4A3TbaAIrOEvhKXH79bd7HwWeEySyNEDz0OlAjJtURYYtt9WEjPEjWNrh0tixk6VrcH2lejplf2sJAFB9vCYCiKNO/lFmPI3QM7ZGtTbHbwmytFxzbx9vpqn2dpkZ0gtxWHzayftzVefByO0ApqiHNqQfPPzg5AVBU4lgVFFLnfzLeyDKoxQDHHNxGALqv21pdOnJf4maJn6E1LK5QLWlOXQw6TaDjWNWM1AWAn37hVV7jk6tfAToLQtWTuphjSKuNI7oNHjjoY9rOv5N5o1dLi/p4v75BVKP6q5jtNc/paN8yFvh/4A/yvkMPNLME5+X4s9iFTBi/Z8zf5KHHntJ2975q3B7b20kb8hqa9akvX62WLE4o24L29h45Rq1f4b5Hgunr3lHDtP/KDluIZrp2j7lUf71d/ku6Bbc6QT6mx5bqA306TLXvbGxvSKcsu/ugKN9Z8ba68+019q3YNQ5Ph+6/qxq29dax+NbuWyrt55XbcStWiL6wgY5TFY5d7z1gj5o7Utlt810jvb94+U3qJ7/+g0IQuMKAfd+v2vYYrzb07KvWvvayK0kQB9Df0Wd7F7iarbcy40YqyAf2H/AlnTamg2rr3r1pQA64b9fA/okG+Lz1ya3NjX6ITl94cb768OQjo2s5qRbQF776uvr9fY+r3fRUM7wLGyUA7l9N+Zv64jdu0EtK/MvbLAA+bNRuwf0+A4eqLQYNV6sW+CdzvPDOu4Fn4L7aOxIvwVoERNQf3o67HIT1zu2mQX6Fvoh52DQLyKEmV725Sv1Tc/A1OVyAcRN9t73F6YYL0DESVRpsiY6EvHva4wGd2Wv3nesu1YWaPDZ9hv56+YXD8EOOV4O2jbFZ1aNv/5JAx/X1lQ0bVa2Ajgu4B+QPdxs0YAArRMZAfnDPLdWEXr2C33lJTr/rSsGRJT8j+R+9tSagJnnAbZYNjRg+sLfaddddzOjgvAjaQkEAHU5OXRKgS/iEb2jpmJJWa19wwP2tG/5fKjWRtgLwfsNHymXsKEBft3i+9yUB6A+veUe9r1ePqkv03CBHzywgf6s97owee9IaXwg1uV5TE9tJ3tUUfDW6b72Dd7DEwNAl0YuiLbSJQee+e4xWDz/xQsR3kZwAHwozdMBWauthQ6oq2YWWfOmKG9Xv7/6Lgj6VCgwye/QfrLT6TXXbYktncoDed9vR6u35L3qBjhAC6KM1danmpApo0W2rnOOxh/FdSSx8iE/C1wbpdUD0j9EoOnKoSdZl4viB+m27cySF3nptvnrt0bucPxSReOPhtz1sm7jUqsS3xa4MoJnrGpr3xXEq6+5qZt60c6T2r+540Ol3kpYPT0fTCGRycle+9WtWqYXTfhvLY6fD9oKXaDWnyLn8V3Q7rgDkS/RJzAuxkUAONcm64KcNbrOjSwGdtICd2T8TDn1vlLUSoANsPAbtcP3P/+DVQ9MGtkbJs/uDlC/1leOhKGX4jryIbYd/zHdbZQE6mXH8qxbQT1y0zNW+xgU51OSat1bH3GZdT0Ac4N5aq7e26NWh2/elWzz3efXmkw/5bkfxTCSQnc+Q7nmADtCYyZ62ARWAyWJNFAmP45dMY8OrkGB6HeL2m1Zf9GAVntDPI/ZnOrA7ZAV6tbwXc4EcP+GfDRtcF7oCuO9cvda5E5zdtVnBbeZb+I9pavX8WWZU6jlAY2c1ez1wl9tqGiVJraSJbkJdBraN9AoUgL700T+UfImLBjq4sV2sw269orteb2WhtnjG6Eq9+jwrNQF4ffY4NOLcedqLJFqoM2QFOhLXnDgsdcFbWRBf1vxm8nCWBewlf6Me4c4yK8xemYo2b5j7T4W3vg/ofE2HHKKnCJYAOvNxcaqqFnUx+7d7a2vra9rv1oyLzms16BTpbU9EjhoSngCsPrsdFBkm7PtZr0sB/df//Wv1yP1TvVtwUw8DM3tN7qz11yodgG0btZ3adfS2wfYsU2641Uv/+HrjonxEn02UD8XDhctWxPLw0g/QD7B80XzVs3dfp6AB6PD3DSW+mrhf4HPi8hrN20evejBMOS2jR+34Jw3y2B5BdM59I4arWswGyiq9y6EmaR3l4498JR6f/rjq0bOnWrd2rfrnjCe0L8eSjbNmTm95acFStVr7brz6+hK1aPEbqdoE6uaTLCs8LdJrg9hT89LaZ94DgASXZCWe34tgAtocuOIods3VtyRmzpCHsplt79sPCgzYWgt+iy0Ht5E9AHqv/oO89KXUOIj6WYq70gCOXLsG6nKPrxvIkd5ZBpaAjs9fqUFl1k4C3GtWvKHWrl4VZHENRI+bdLz67ve+GwA9rVxegoXzX1GLlyxRH//ox2NJWTvdlIpyE+n4uM73D22lde1ALenMIyA+/4JPBBoXtDUy6JSpba7xgeS/8rpbE6tdcY8y2dTAB27Jz/FbbyyPLfdhglzS+egL90tptuirSqV5Gsi7DejXf4xuR4czdNhivBBP7KMlWQ5TeZg100HM8aV8TRjkDB870WuMyFSZTgSwWW1q2YKX1NpVK9S763Eh6gg92/T63muWR4YaYufMnq3+eu89avsdd1RbaI+6LfT6M921P48diBs0eEiQ5hc//0V0O5COA/moJ0MPDa4dt+ywKOPpeUiP7qpV9zf+Hr6AQQXD1RNPzlZHHXaAOnC/MWr0qBGBH4zPYsog+DNf/IH66/TkDHu+MN/XWpoRW8ZnUNn180LioNemV0IwTeZai65aB3ZIcslDv25YtyYw+UucHMU66vN3YcpipQ5dz6x7N/CClDqN462Y9Q/TETGQ06mn682UigY50ls8BdPM8Ujv90w8VfUb9h6jrflPAffby15Tq5YvCcDtK4EfrHVLvbjOWv0y6B+WgH/L1Lv/pFrXrVCDhw5X7frHXrVqpRPwzzw9U035/ZSo+JP79IotrxfdcJwM695hXT5NA6+/ttrN0U5mvr6hTb+7+6/q0enPqy21BbGltbsaPCD5qccIdNbZ31DzlzFE3BSQ3jcOHaBO2morxctmBgE0bhxYufnj9+cPa+J92hgn7cIPB+FgB4QHQHdZSQG6z4MRKV4pyOet3+AD+VVJ8RS2vMhBZ9aBJVXzKRySQedtd7B5bVMS857vHI7J3zvLFkWaFwaXrJTFZItDJxyqJk58/8bdd98tcKvro4Ei4emZT7fr8wg15WgMWMiJ1RHYZW/KqtWp1l2Wwfiv788Lqge4og2R9tjcnTRYG83VFyQtRwBe6vd2TRQ2y5BzaCB/LvpC3JtPSspNx5Spa5sSlThb6B94LgDkzpm3ALPUehYl6lUC7izcE83J4HFHOEfrpeqR++WAW/LK0QV2NAp3T72LvxaWiTv2gx9qb2traxHAz5jxzwjglNO/tZsUFxwBUakgq5UJ2AHk/W+vKmntZVaOPUvdrAuA39E2JLYamnk/C8BJ71lv0Cwqdu7SvjCuQohlVd/GCizzgj09AflCV36mkJUjkaSsvL4mWSyWUrZ9LALcdpmiPei2YlHMsIEUfe67VwWg5sUcvW2bMrdvAVQCWMrMCiIkqbwckp+B64Fay3PdipWxgZ/d1rRrXoL569er3fWXopJgS1u+eNJHvnKDwb32GzK1L/SnHYpYWNazPMZS6uLJF9iVcp0i/l3JY3G36BncpXTekqGU84+ks4/VALZdR/AjagrTW/+gNthJC53xLcTJ/awAJy1BKIMAHrDzh7Mci/jQr66vIgNddNwsI4Jwsh3ZiMuiReloRbH/bfqy1lobBaFQKWOgxa84VgzQ85ef4F53xLle4hbEx6yenjeDPKkhK8DLpSe1ALf9gKXAbqa3+bF5L885QBeJTj524PvaIP46Xp73/2txUByaEl4CAi8VgEEyXrB0RaQXRz+vVrwVpOEfBhi+EGb50U3PScpEYU+OeLTQF9O7kRRF9Be0mC+WHbT9pwPk3ADxtkHI9WbYhdjX6CqzSHB4WV56Ug9w28+XB+x23nKuAa0NROLQs6cFgM5AUyZ0MxDlD6kpu3JQBkDPGopYbCqgL1aFRez5mWbtpLqAqIWIj1k9XW+G1b7EJQaOUiEvPWkEcNvPVCuwC8AF2HkMSLbkxcUVzY2UKc9E2VkCLw4vSTm4kPLh8XYogo9jTfaEQKmSOhrJq2FJozh5LJeNCGxXJ5pgL1pjwCAUADLodPFwaY/0OWmF08s98wiYTIALuNPymPmrcc5Yogg+njJ+fIx2C8idakQ+A0U0AnrSluKHLB3YLOCW9soRsAvIy6F5Uo55lMEnfBsejg8JdPD2tzuoh6SlPhfAXV/VSoFtSvHgBZdGZDzampUiqApVy4tuNWMp403iBOQLrQTBJR2Vx6fAp0uFf6eFZgW3+UwMpO1BlXm/nHOALmBn4MkfakUAf5lemg2eDfBQEZrCiC8w0t8Mcr9cyU2ZlQZ7okgRVIU2uQQLLuTS3kDfqxGvl3pKrlHueUMkb+IoHnf2DUbWpYJrUFIqTyPd32Lr7YPmADqRmEW1D2ACbPmjXHMVVxzdsEvwh3bL1KwU1QazHF7ovMHm40VRFZ9mRc+RmCptFEnu1LAgKVZs6B2TEpLRdfSNwHG0V+HiNK58nS2uCONLnj4R7UlaHl4AkZwi1dPS2/eYrSWhp+bSlQbzJa2kLN+6l7rMiIJHIHdpWKg8Dy+n83hD6XQz8Jnqoy1fvjU8inKjNeus9bnJy+mz5O6hxbYo71dW1Im0Ai0J+mk4MVoYhFMp4Jv0Z0P/NhV3XCj9bOtffzmWyPfVjyXKcBHYANzpgkEntyKQ6/M79N9/EmmGvLycjrNBTnlvLZjjBTn3mWXS9JQl5OX02RF9eKrqBCiJq4+pDS3WaZOPVmP2Hh8sNTJ16t0tD06bFmsIlAp/F7MMgE8wjTOmtK100GmOV6grz1gv1njrwsPHnxpzzInR1P0I5PDyIiyf8km02hJoH9aneBfi39D0INe8fL2eJI3UQyOCyq7cgZ7df1zDP+2JJkzwIKxZs1qNHbtf+yGHHNzaq2P1s8BbUjuRqUmTjtt4zQ++15I2XU9AbDp7ORwGg5coqDDHP5uPi0EqRxHOpFn4OBkjkHPhsnzytufh5Xz2fEaD15+dnrqkAW3oDAHAPLd2TaH+Ivyg9oASgJ933jlml3WIYzNGn+Mtee31N6h7ptwWbDZrSlUraclLmeNZMqGRwFYdFkVVsvBxmhEDeRG8nEJduyMTb/My4iR0Nl7OQK0opyiXRydrw1gAl650HpHuJ33kDHXs5FPV3Lnzgjmr+MoTEErMD91qQD/1xnbvVfvtNkpNn/F0MFkZpYGt+iOu26j9nPW4Is38RVKVLHyc9sRArq8L4eW8qS4fFiQI8/18A9DOxMuhLOf2z2YydwFD4nwOb1CP5557PprEIek5MqFj4MBB0WTs5cvfUG+vXBkkAexI9lGjdggmhBAJwMeee3lwX/5NOOqI8PRT6r7bfxtbZg/Q4pmZxSBkUxWT80td5R6z8HHKjn3efPpyc2SdpUEMKnhjXYEBaGcOpr4cJyjxEc/7zNATDD4uYSFlff3Sy1rWrIkvcgnAh7dtEwGc1QYA/IiR2wXgl7wrV3VM5OYaCZ4Wjjz5FDX6pHNiu0Fj4bUBnFaG3CvKyon1V8YRUjZHUz8u8S4k3ig35UhhFJon+AYXdA4WTldg8NmZAib4cgL0BP5taz/g4KbwQKJee+31sSoAtISTJx0brCKwz977KqQ54LfBLmlLHQ889CB1xmknxJLZXDt2M7yw0/gUE668aXEpfRvpxyW/C+SJRCROKVTKih3T9lxnSYjOGsxPOCDFMJQ1iPRGp21KKabcTdLrpgw+4hR10LHHxYpDPQhtiUXqi/+b/WI0oQOa+PfHpwdpWE8GsG/Vt2+UZbBnDfIoQXiydt/jFWuWS0BfXiqYfLxIK6eLqui24K8SWTqlbQmQh4mYRBELFMqPkDWIYciV3kdZOsPgk+dFVy0hRQMgSQJzPNSEtfxc0tvkywAdsJjBpC1IbMKOo3dRvBwSDjhwfKBSlGuTrkhcluPbzz4cJOMZzRfaldemM0VRFfrUFAJG3QkWwr0EyMMMicQUmuUHMyoMLGrmtZynURYGn80eTAmHBsDFyxEYDCpZnQrJbYKb5wegR/7HVYH0tvtjl4u+laAtP/vZL+xk6vap9yiWvHtu1guB9E4kCCPeMyS20YgvmXrkz/dHmpY82hUpsCiqkqJVQXGSCD6QOxOnFJ4omIi0h+rslEWcmAAvPuHwbP4E2EhtBpUuicQa5UjvLYfEd6iTTibepi2sJsBKXmhRWNmLADU56JD3OlcCY+k7Ke+tbQ+QU+/xnaWvBwvtkwDX6SxB3I9JWyRVsQUC5Wuvw6dCxQmXseAEuU/LQuHVpiz1Hnzan9hYb+W4EC0LWQAz0po/H7BJx6DyM6drTcbHL+IyNbhoy82/+GWQRyhLagE5b947dWrgSszLW4qmULTdj0VSFVfTXVoVSecEeXgzQVmIz0tZmEXuCmmGIVf6WsRh5DClTyV1ZgGCXf6HPvFhxeAua9j/VL1EshEYhNrS3LgdO120aFEkyX1fDMmAFJc1I82XV+67jtXSqqSwiWtc7SAuDeTOTCx3kCf4dOaM+F2qxHoOPk1NQBFjg6yfdfoT9WAegJOH9Obgkrjbbr2dQ+ZgqiR9mf74q58Ft7IMNqUMsy+po5SXo+RLO6LGdlEV7Y5yr2Yfy3x5vSAnE5ntjHBIuGWe4NOZ+yZTFAGwPO0jrf15xSpbaTuQ5gBdtC186jm3wQ8Hh36UE/Y87fOxbMLNTcry2KN/U9+99Kvq2ZnMjekIKxbP9/72kobj4w8/Fn3dsg427b70/f5mPVnOfWps7Y5yQ1r+1Af1Zc4rzX06c7sz0hpaj3tFjA8AOuBglQI2ELCBgiTOwsF9zw/VcElzGYC+tujVwCCEn8qJJ0xWXJuhlJl93tSfB8ntF9Mswz63qUoRDlk+Ka7rRt0d+Y7bbeE6FeRamk9l1GpnRJrnsYD6dOY+Xl4EuOw2l7q2fxjSQ51YpLLIwItt8v5D3ltas1GqfqS5STvuu//+gJsjzefNnRvLLtf/WtpBO98ZsU3svnmBzwq0MutgU/LaVKUI33GfFNd13phGVWhTKshJoEetl3C0Q0qldtLg2jW69vFyZwFVjjR122ZVAL1S2mKWZ77YqNXy8nCzLDlHmo/eb0+5DIDJdjBI8/3GjlOHTZwY3IP3o1Ik4H+eFhhsyt6nWQeblGd/nYugKmj0XFxcV4cUd44daYuEkiBHmuvEFBYLVJpHmvt05i5eXs/BZ+whC74AALzYErY5/Eg5rfi4/TGfiJXBctMEpPlPf35TYBD64fXXRmlef6VDwvucs8oZbFK4+RJz7aOq3MsazPmlVp6SUpz0JUEeFupUJ+aR5j7KYr/58hBFSk8pM+uxWnWbNAV6Ue5g0/UcNjeHMjzwwLR24eYYhswgK/G6/FbKGWxStv0SF2EAQop7PDEzSXHalRXkfBIqluZOymJNcKVRnTHYLzPjmql6H6Bl93dMXCjimW1+f8/vfxf8vqamhXqwiApvdpn0Fz3wm6A5eQabZLDHNa7fOyg4x79KpThVZQJ5SOwrluYuyuLj5fUYfObo+0KSAnRUfkWBHX5vOm8Fa6lrD0WR5tJoE/T2mOCPv/x58ALkHWxStrw4Uo/r95Z7WY7QYY8UJ3tJLi51ZAJ5mNgrzbPqzX2UpRH8WEwLZTVeMLN86Xw5Fgl2m+czW596TGCLhsXUyJAGmpLXskk+gv2lKoKq+OhwKeNPR4s2/c8M8jRpjt48q0+L6xPmcr3tjIPPUp9/AfszX/lU2TQGnm+C12XqF+csW0cuOvE8lk2BUtFUBcHp06ho+83HpN4sx8wgpzANdNSJCW7Oj5PCnWLtcH3C7A6SDNUaAEr5tT4izTEKiQXUVz8/LjQGsPd88i5fMm+8qU4kkZj6RZpPm/ZQIN1NHfnvvn9FpPmxDVbeiowbRVIVBGaKwTGTRsVoWjZObmbQ52dY18El3CmLShHKYkoaMtNBLj8WVz3VjIOHEqr9FQFESHWpz/dMgB1LZV6wo040+1iMQ8LNX571bFDl1tuNCo6mNqXU18bV1kqoCoAWF2QmjuBfjxsygtMRMmtUzLy5JDkZ0Zu7fFq45+NQ3DOD/ZnkXiPwcrON1T5HqmPmB1RZJLuAHW0Mhpq0gDqRGfgSGNyb0lz2ORp28LFBWUJTyhlsUoepGuXaRUmJl4AwNP3qxQWZl9oDbsk6RJ+crxfBGiwRWY65QU6hISdK0BYamWUQ6uoEFy+vxgCwVKeUkq6l8ue9D9hFsmcBOzTmvm9epGZcd0kqlbHViUhzZvbLXE8kPS8DRh8xUOWxbMpz2lKccl2UFIktwL542VupfvVStufIUoazNNAnee4noruN3v+gRGSpiKE777pm6ZxZrGNwqJ2WHYXf16tHsIuvfU+u1+pdfqetiXsybtF/iOr3no7Pp6Rjq3C2s65VWL9kYVDVwNHxhXPWWVuVV6M93XpvFWzlzc7QbOvNrse+wM7I7M4846nn1IL7/qC3j35JbfWenVQ3Y+rgu227qNa/3K1ee3dDUAw7TffTbGzp6/9qId+oHbdX89f1Uq89/qfgPi/YFu8Z7avSH//anFhbx/TYUh3Ve9McAqT2j95ao36sJ4ywtbrs6uwvMNMd5usdqTH4C7BYKkdZIKdQXcHT+nCm/otNEOQhXtmwUQN9S5I5w1C9iuptmsPHgt7y2wZXrUHebeUS9a4Ghd2OWoBc+iIP2MlDfy989XX17MP3BaDurtaq3jvuERTH+ZzZs6VoNXveQrVRg530e+47Vs184M5om/Xeux0cpct6ghR/e/G/YsnZcn2HLbp38OxVa4MBpLxosYQpF3hVHnDwBDW4X6+grZ6kvTVt3mvwTrv8t+d+FG2voBXdKHWCSlF/MhiEJob/0JZbVrYGe0/6ykGPSjoJYhQyB33muaTbXI6BXl1TGd8eoq5+oD+f1HRm0D13B5wcygJ9EJ7LAP/xJ2YGWf/xxBMRTSlnsEkhtp+KDHYZPEqdrna64viSnPXZz7SfMPnEVpbMkIB19offvjRa7UviOWrafLTG4OWh1s+8FTsvW5JTiv5UzNYSnRclQVv4NO2tl4tDarvC/HffDT5f5r2BO++jum0R/wJsWLdGvbv+HTNZ1c7fenmW6ta9e10luf1wItl7tu2goDLrVySGQnaWQLoLnfHRA6FDjEF6bbdrooxSEUwVXPP227Fk1DV93Tu5KAng/sIXzmu//kc3tIw/6KCWvnoFMDN017/HIe87XO2//zj1wLQHY9QoTLebxuFVZh77vGxJbhSEJfQs/cfINxau0iqhq4f0d059srexJiMalmpKbxkkBVIy1tJNFzII2xTTOGe0mz+eAylaRFvtwab0keupsWfY+nBXuixxzIY6+aOf3HjUMce0aOexkgoQXIR/fcsv1YdPPs1+7iEMQtH6+eqtGOQhbWF1yPv1XwzofLJYT/vrA/sm6rf3mSQB65Mzmq1WkB8JgPDjmmA3f1x09tV82cp5PrN95Kf9PSsEHVKUYalr5dpy2lgqD8CecNiRJiUJjFKl8sn9PfbeR53/hXPbr/ruVbGXQnNz1q/2grxl0tkXSBkVHeFGugDUO4nA1tjsDW8GVEoo/c0ANxxhbYUI4Fw+52a+rOcAxdTpBj+yXupMpKPc2+HYT8ZAzkq8lWwQYAPUbK9p7ZV954uQ0GYd9Tz3ce1y2wRHP3D8ga4vyhAErqvciiW5FAr5n/3nP45jMCBxcsQaCj05zFAtYfmsdRDJLWAOPr16MAbQ1huDYF6qYRk38rIBLKAFsJ0JrHl/K2YjscNFVjqStXz84hmg2tJc5z9f/zlnsRUGchoZGolm6dMYbeEeVi0oijnfzxz5k8YerRNXdADoAnIp2+aZfL7Xt40MbjNOEENVF4Clx/xHJPdll3594wcmT4aK5KIjSGn8a3A/YC1HX0ADo0FuuGDmMQAAEQRJREFU32ZcWH2Qh/zcqVakRQxEL9L8XICOed/cowbJZ/PhanBjNAppUhbQr7znV3Yndl2X6AE49zkXfIl5pCXBDaBZO525qI/+7e+KmUr7jxsXSf+0qlAxUpeoQ8O03gFooZKcyjTQp2p+foU+TfBzBqKmxsW3g3PY6MIPUIuAmhjzLAuvpESBSLrdd95e9dYW3l69eivXzByK6D9spNNDSYpn3RRm3C/T4wXCq68vUWkbX0m+co4Xffmi9ra2tpahw4a2iJuuvatcIMG/9Z2SxbMkxpXf/LbCzUAEDROsf/Lrr8qipCVfECphAKtBHuO8vgFo4SCnAfBzDXROnUBngXlUi7VQIwqwbUpC44oM7OGzzdZDFXMmAS4gFWAMGzo0tsVJxnpjP2CWPEjHhfNfCeZ28hK8tGCpYsKyOGRRBl8x0SyJK7P4CDEWkUkTZn177b1Xq8zy1/EBCPVS0MrcOpH+ZYk6npV22HNKicOoc/Otd0bgxrL51cu+Ea0gYNZZ6vzwwycmKIumy+Nc+aoCcioqBXRUiy5HLZcakR+jXO2Gzb9dnZA1DoCM3rZNbT9mD7XbbmMCELP/Drs32D+qLjM3SLO2w5eONtAWACBpWKD/wgsujKTj4HFHePdsYo2ZN5+UnJuOofSOyuAOlIHBpQl00mmQx9KRFun9kZM/HH1pRONy+plntjr6jSwlA5ydcizh5aQsVQM5rQToPo0LJmjXbgGBtiKjZiOtJ0RKZTVZ28YVOB9SGTAjyXYYNSrabCqsNwJSWjvqfQ+KkbUNjH9c45VZM6e36IFkopgzzjw9BnLSsW8og0cxzZsAt8Bdcf/B4c2XLGzgeH2M6cyrCnIqReOiV+F6QC9StE/YiOiQ178hypjxhM9wv+EdC+tkybJ47vPR5/oyzS/DEX7FP0aWuquVxtw2JUsdUBk23DUDtMcVWLgImiZjAVc6XHvPv/BLip0uQuAX1p9szqtBHitPY22SbmtMyxJL4HqQSuO0NF+mAX64LsfdU1YFRakRoTdwzDwzjswl4eCXnSGwpSHSuZIgCxHZZUA1Tjnto9EA+aXZL9hJFKpE/kSySwI4OlKeRUj545y4PIEvrJ0eYarHg7FJFVWX5DQCoOuKnaZ/u5Ey4rbjy70G6FAXGVxlVUk+PfPpdj3YSnRiue2oZ76e2uMza7/223bnhB1h9oJFzsEkz2QCDYkebbnYlnxigHzLT65V9057JJL+diooDdontCeUzdfCx9uhkA5eTpExw1BNQE6tGuhPaaCP0adOYxFpJNi6cgBa7sCTMslr5he+zj0T/OYLkHVpY8po9DBy6CD1nNZ+lAr0u9lPkp4XxOTZEs8REJph7tx5wQa6toaFa1SHqDzRQvGHGlXCTtsOiWmkNM1qHTJsmNz2HnkhLH250qrEWKNqBnJaGUr0TED3PlUBN8wf0jynaBl4ufhlAVXXpQjfeoc0BmDL/Fq7L8zGslaLTTm4j5Q1eTk7WKBxMvNKOnMtRvt+eJ3ry4lldK89xiRAbqsScxXqaViuaICuM4xxLQktBUmny3Utj3zaCT4eWsu2FFWXKTFxUcDhTP6gc4A7DeC0Q4xArjbtuffYKPr552fVBFPC38fsPT7aFiZqhHVSkwZZdQYSncGo/qzca99rlGtZELNR2lNJO7CsmkFA7QO2a6CKetAswzxHzSrXstyFrPEi8dU6jhq1g6tdm3iQrrguIOeBkeihQ1dC6+Lr/Gp1lFmurFOOkUGkhXm/Gc99rgO+Z5GvmXk/jb7FBp/aB6UWQV4itEfQJTuYGpaacnK7ISFHv1HHJ8z/dtp6XM95cZbCUb/ZQ+gHk1mgBS+6NVBNo2+Y8iVYFkiJDo4IjT//6U8b+SrITheyGQBfG7Eio1MfOHCQV6sSK1RfbNVj0+oA9j2u6wpyV4MaKQ5NgQa563PYSM2sSVtQI/oCrgRmCHxYiDDUiKgPQ+1Ky8o33wqSr9TLbix/a9M8Ue201SqqTijTkUccoSZOfL/4pEdV8LIw6JSQNrAmTSOAfLo0Vo5FmfalvHKP4V6XTQ9yHMXK7QPJB/gAqk/DIlop0osPC2AUHTf5MmhXgupMmqhpSYutvhSqIm1zHJeGCo7gVuZPmKOgThkls4d4uM6iK8/jv5L2oy5dvNh7u23YoOieuRFuFJnjhBdD/ng57BfLlOIUa2qPuNYKjSc4SmgEkC+UxjTaMW2w1WhtrUV7oG++ejDu2AGJi1Qu9WfnS7s2pbyks8cLWqERA3kj0JUF0thGOcqn1+68Rmlf3nbkddJyTRGkTh99A3imNJUvIBLXlrql2t7HWnelVHrcCEx/+TB9jAI3AsgTzyFzKRM3ahQhvh5pg60aNaWQalCzSQj6Vs9zLSeYhh6AjaR2gVg0J+XU4SovrZxHH/1fdPQ2I4mxA/tmWnk1uydLM9SsQk9FMtjy3G6qaByZKg34nQBuBqDMQPIBUqbkVVpflvwzZvzTxjCDzqfMvHYC815Nzs1RsFQoaiS5rvVRDELUK/vr1LoNRdc3sF+fiot8bs7LqeCWCkRFKNfVOqKqZE1HK2B3iYWGpCuxFuqLevqydBaXWzGY8JXMAncZl5i/RZqhx0yX5hIBh165alWQ3OcPg6nepFhm2eb5DVd/z57+xu1rzDScNwrIMe3H/A1sd1u74bW6lkFUreqrVj2lDCZ2vTIuseNlsrIdb/rH8DJc+LmzlWns8bwgXv09pnocvzAGubwa7/ifmxPeh7pNV7iYQaOA3O6zul6b2oWnn8X9vXmCGF98La6UCoqhh/IBPF+6Rx68r9X26XZoPHxNiuIZNzBvE99yvAtDiZ54EdhpWm8v46Lad0SFGScNC/LXn52utt5jfLAmYT0dtuChnSGYKr4sz+PyXyHf7f/9qwB09EsonV1gy1JF4Fh19MQJwWQJnLxMHxhdQALcrDxA/fZ6K1SGR+vooz4QG3BKIxoC5Nq3fOHGjRtjdIWlJObpP2bbm1ZIaXi1j8JJ+SF95uxqt6HI8k06UUm5tsQupywkNusZGktnOF8UvhR8OdDPo0XRk5YTwA/rX6oNQBf72tIQIG9tbX1NN9LZRsDOX63BbnJS36wYZ4MbIBKDiq3eM91t8Q0qUHAsxYweWhljRhjdFQuN7oiW9kZwsGDnjT/5aWw1MdKifmQ1sEWL35B5qQDbB24p/gxbbSg3ODYEyMMOOtpsmH1ea7Cbn+vOomGx+7SSa+iB/t1u0OCamqUc10R2wF7hlwGFBQBPbUNDgFw31JYA3n6rFdhNq6tp6fM2rMFvZPEpD7w/w+cwn9/xaPv6+K8jbRCFpNVAP0NfJPaY8uVJiQfc6MOv0eU61yQ38zYEyHkTdQdcoRuWefJEtcFuSvJaWvDMH6ea5wJowJx3LXUAW07bwt+ZsddB+o+VroKZ9e3t7cP1mGwE12EgDUCOPAoNOvRYFmCH5QSHhgA5LdENl0VCz9KXPGSmANhd26Nkypwx0YxnXgzM2aXUcxmLq0sy06ecPis3pE1Az1JmCFDoBX81Cc5RbU1qdlQC0HU0S1Yg1YM32ZEsEYXulx/u7ecfCzaNSiQoI8IcmFF+Bkf9MmqpXZaCfMqXaokL5Wiq0FAgp+d40wG7/sNB+XgGOFl7tBpgl7plu2653pyO4W9wPL+J/iuLqtSzvxqGrrg6QXdo8FkLZ16fr9NkojKAnUUrke7oZOHXpmR21eWKI29o8PD6UrvyNWKcZWixm7gUWwWRWlLvY91cqgeZx1hxTXXZ0CCXntRgZwQNZ79GHzODnfwBSLWqqlLAdwYNixi4dLcsnTz5xJd22nnnA0JLI2OgIeFa5nRbFAT8UUQTnjQFyKVfKwE7ZQjgZaBKXJqENzUsDz/yMMmbIrCcg20MouGmgeuss8860H6Y0BGKsRCgDwKGOjlv1mNTgVw6uVKwC52hPNE0CK2ROuwjL0izm/ezLPzpcrGw+6LZrhtu4JmnAwG7/hONzPGVqLcAMYC3/8z2NPvgM4u7bWeQ3OZvxnlTg1weJgT71DHHnLivjsulkZEyshzT1gPMkr9WaSpRd37gA8cPMNupjTDjzOtmPO8UIDc7XgN+aqgNAPBX6L/M+nazHNc5+002Q4CTlwgR57bTMRi14thsKrZzg3W/4S87HcilxzXYn4LK6L9A367jr6iEzlAuEwFc635InY1+zOJTfsghB7swgRm+aYPrgZr2YXwNR7oD+JDOIMWuCA0cuaU8uwh3hhBte2I9TDi30u6XwM/ESto0l02pXamkdzXYA527WUb4OTal1cLwfuQDLembwe3W52OTdeKEFgD4hx8tz6yvm5qXb3Yglx/OPIbAn2rGca7BjztnzDOS+Yyf/dzn7KQNd+2aOGE2khnzvhnxDD6nTPlDlLzZB5+bBV2Jfq38Jwk/d/FIzF9U/XOYs4PSWtPZBp9dIE/7tZV6TN+O8VMMSSzO3+zBt+YJz2XuHGE8p0nnjOjGP+0CecpvBI2Bn9pJwvX37Oimuk5bXjl05oq93Prhmnbw2QXyEtAMZ6TEUjWDs5ZLVx5OgYs9i+/Cdsxq5sFnF8h9v/KmeDwfY+GZmTNi153xwjbvN/PgswvkJRAKZbGNSGyv/X+zXyyRs7FvvzRnTl7zrddK2thP2kl8V6rdyXoiQUK9yFJl1a636PLNeZ5Fl93I5XVJ8my/zh12MvTldlwjXfsMQpW0sVl9WBr6h6rkBykyr6YsT+nyYtoGFsVpdD8We2sSczLzH/9415u+PmJ5ts4UuiyeGX9N29RNNjZe/cDkyaWWMMtYQ/2S4ccyd+68jY88/PB0wB+a9COzfv1aVkzNXSDP2I/6h79BJ4398NOmPdSiQZ6xhNons6fBmRtk9e7b9+ijjzrmKT3eYFEfBpW8rIkpcUarnWt/G/cb9rQL5Nl/GqyfsdBM8z5puOmrEsx3VWqf2AP5L6BqCVWqP3lj3eni5Bl/j9D6ea+ZHKA8OxO63jyBHRxyBgDOopp4bzZl6AJ5jp8tpCyxHI1s4ndpWFybysYeaNMF4L5C/43RAE+oUDcla/yzLrqS7zdKUJZGd721XW4HDx+pn3im66nNdcbvCDVKrnRNF9cF8hw/GZ/s2X/+I+tyRwNQVInNtFTFbruNab976l32F5xBJasedMpgP2ynfMgiH8pFWRpxqQrZVNZeZGhztHp2gTz/G5DwMUeVmL+Y6uQQcPt2TDYNQtVpQeOV2gXynL8JlMX2MUeVWG/rZylwy2OWWPhTknWqYxcnL+PntA1DqBI/9bFT1V57jAn2nzzgwPEtw9tyq+rKaIkKXi4WE7JpSVph5mq9aek6y70ukJf3SwplidxPGYB2bPL024C62DsKjxi5nXKp9MqpHqmdFdhismf1LzbeNfbfjKpu5gkR0UOknHSBPKVzfLdCLUts2QY7LT7n/GlNRgB6pCe7DY8du187gz+4MdQhK/izANsE9EsLlqqXZr8QtEG3rWHGDHY/1eK6C+Rl9rJNWUoVA6XRm63y5xwH8RKw6iyLcqLLZma9TFdbsXh+kOdfS1erNWtWq9UrOhwiV775lmv/+tyA1s9ycan2N/P9lklnX9DM7a9r27V/NT6pEWWpa2PKr7xT68jpFqdUKb+/NrucLD7UzKHTA5wfpwvkFUA0tBIiycteW7GC6svOqgeaOJrt25mtnGbndNEVszcKONcUBvfVkyhKT4CeZPhrF1B62UWYfimZdjEuu6YGzNgF8hr8KOHcyG11VbLrcLRQj6jvHLsSBy1j/RNeFPMoTZZlI/TA8QmJ00dZ2m6hPl+AJsi4t1me/n9TVjon+amvIAAAAABJRU5ErkJggg==;" vertex="1" parent="1">
          <mxGeometry x="490" y="640" width="36.14" height="50" as="geometry" />
        </mxCell>
      </root>
    </mxGraphModel>
  </diagram>
</mxfile>
